<svg xmlns="http://www.w3.org/2000/svg" viewBox="0 0 63 37">
  <g fill="#54bd8f" font-family="sans-serif" font-size="40" font-weight="400" letter-spacing="-5" word-spacing="0" style="line-height:125%">
    <path fill="#000" d="M22.12 20.96v.3q-.03 1.33-.29 2.76-.23 1.43-.68 2.86-.44 1.43-1.06 2.82-.62 1.4-1.4 2.67-.76 1.28-1.65 2.4-.89 1.12-1.87 1.98l-2.37-1.37q.56-.93 1-2.04.46-1.1.83-2.3.36-1.21.62-2.48.27-1.27.44-2.52.18-1.26.26-2.46.1-1.23.1-2.32l-.02-1.94q0-1.1-.13-2.22-.11-1.12-.38-2.19-.27-1.08-.81-1.92-.53-.84-1.37-1.35-.82-.5-2.06-.5-1.1 0-1.89.38-.78.36-1.33 1-.54.62-.87 1.44-.32.83-.51 1.75-.18.9-.24 1.84-.05.92-.05 1.74v4.43h6.84v2.62H6.4v5.55H.1V20.28q0-2.5.8-4.64.79-2.14 2.23-3.71 1.46-1.59 3.5-2.48 2.04-.9 4.55-.9 1.7 0 3.17.5 1.5.47 2.72 1.32 1.22.84 2.17 2.02.97 1.16 1.6 2.54.65 1.38.99 2.92.33 1.54.3 3.1z" font-size="32.5"/>
    <path d="M36.17 31.9h-7.98L19.9.24h8.9l5.25 22.46L38.69.25h8l5.1 23.03L57.52.25h5.39L53.7 31.9h-8l-4.47-20.21-5.07 20.21z" font-size="45"/>
  </g>
</svg>
